HIERARCHY
ROOT reference
{
  OFFSET 0 0 0
  CHANNELS 6 Xposition Yposition Zposition Zrotation Xrotation Yrotation
  JOINT Hips
  {
    OFFSET 12.026 91.1451 110.155
    CHANNELS 6 Xposition Yposition Zposition Zrotation Xrotation Yrotation
    JOINT Spine
    {
      OFFSET 0 8.22665 0
      CHANNELS 6 Xposition Yposition Zposition Zrotation Xrotation Yrotation
      JOINT Spine1
      {
        OFFSET 0 24.451 0
        CHANNELS 6 Xposition Yposition Zposition Zrotation Xrotation Yrotation
        JOINT Neck
        {
          OFFSET 0 24.3506 2.21369
          CHANNELS 6 Xposition Yposition Zposition Zrotation Xrotation Yrotation
          JOINT Head
          {
            OFFSET 0 14.0455 -2.0065
            CHANNELS 6 Xposition Yposition Zposition Zrotation Xrotation Yrotation
            End Site
            {
              OFFSET 0 25.0812 0
            }
          }
        }
        JOINT LeftShoulder
        {
          OFFSET 4.0594 22.2558 -0.272799
          CHANNELS 6 Xposition Yposition Zposition Zrotation Xrotation Yrotation
          JOINT LeftArm
          {
            OFFSET 12.0298 0 0
            CHANNELS 6 Xposition Yposition Zposition Zrotation Xrotation Yrotation
            JOINT LeftForeArm
            {
              OFFSET 31.2689 0 0
              CHANNELS 6 Xposition Yposition Zposition Zrotation Xrotation Yrotation
              JOINT LeftHand
              {
                OFFSET 28.0275 0 0
                CHANNELS 6 Xposition Yposition Zposition Zrotation Xrotation Yrotation
                End Site
                {
                  OFFSET 15.0487 0 0
                }
              }
            }
          }
        }
        JOINT RightShoulder
        {
          OFFSET -3.96464 22.2558 -0.272799
          CHANNELS 6 Xposition Yposition Zposition Zrotation Xrotation Yrotation
          JOINT RightArm
          {
            OFFSET -12.0298 0 0
            CHANNELS 6 Xposition Yposition Zposition Zrotation Xrotation Yrotation
            JOINT RightForeArm
            {
              OFFSET -31.2689 0 0
              CHANNELS 6 Xposition Yposition Zposition Zrotation Xrotation Yrotation
              JOINT RightHand
              {
                OFFSET -28.0275 0 0
                CHANNELS 6 Xposition Yposition Zposition Zrotation Xrotation Yrotation
                End Site
                {
                  OFFSET -15.0487 0 0
                }
              }
            }
          }
        }
      }
    }
    JOINT LeftUpLeg
    {
      OFFSET 10.0325 0 0
      CHANNELS 6 Xposition Yposition Zposition Zrotation Xrotation Yrotation
      JOINT LeftLeg
      {
        OFFSET 0 -38.4033 0
        CHANNELS 6 Xposition Yposition Zposition Zrotation Xrotation Yrotation
        JOINT LeftFoot
        {
          OFFSET 0 -44.1642 0
          CHANNELS 6 Xposition Yposition Zposition Zrotation Xrotation Yrotation
          JOINT LeftToeBase
          {
            OFFSET 0 -6.52112 15.0487
            CHANNELS 6 Xposition Yposition Zposition Zrotation Xrotation Yrotation
            End Site
            {
              OFFSET 0 0 4.013
            }
          }
        }
      }
    }
    JOINT RightUpLeg
    {
      OFFSET -10.0325 0 0
      CHANNELS 6 Xposition Yposition Zposition Zrotation Xrotation Yrotation
      JOINT RightLeg
      {
        OFFSET 0 -38.4033 0
        CHANNELS 6 Xposition Yposition Zposition Zrotation Xrotation Yrotation
        JOINT RightFoot
        {
          OFFSET 0 -44.1642 0
          CHANNELS 6 Xposition Yposition Zposition Zrotation Xrotation Yrotation
          JOINT RightToeBase
          {
            OFFSET 0 -6.52112 15.0487
            CHANNELS 6 Xposition Yposition Zposition Zrotation Xrotation Yrotation
            End Site
            {
              OFFSET 0 0 4.013
            }
          }
        }
      }
    }
  }
}
MOTION
Frames:	6
Frame Time:	0.004
0 0 0 0 0 -0 -10.3175 79.7049 -142.129 -2.8086 2.30882 -17.6232 0 8.22665 0 -7.98959 39.5012 -1.62497 1.42109e-014 24.451 0 -13.3458 10.7126 -3.2412 1.42109e-014 24.3506 2.21369 9.59961 22.1134 22.6415 0 14.0455 -2.0065 -24.0007 -44.664 11.5631 4.0594 22.2558 -0.272799 7.50011 4.52831 -16.1253 12.0298 0 0 -53.3645 24.3578 -16.5281 31.2689 2.84217e-014 0 22.8384 -47.4253 -111.801 28.0275 7.10543e-015 0 31.1933 -11.2917 25.9455 -3.96464 22.2558 -0.272799 -5.35307 7.9713 2.98566 -12.0298 -7.10543e-015 0 51.6988 55.1342 17.2154 -31.2689 0 1.42109e-014 -9.77126 -30.6361 111.278 -28.0275 0 -7.10543e-015 2.23027 -17.7183 -10.4484 10.0325 0 0 26.2928 -38.0469 23.7372 -1.77636e-015 -38.4033 -7.10543e-015 -12.0356 50.9172 -0.777407 0 -44.1642 0 -3.51608 -7.20169 14.7208 3.55271e-015 -6.52112 15.0487 -1.39149e-015 0 -1.59028e-015 -10.0325 0 0 -9.67729 -26.7656 -3.41375 0 -38.4033 1.42109e-014 -6.37014 61.1523 10.7506 0 -44.1642 1.42109e-014 11.8493 -6.35019 7.3008 0 -6.52112 15.0487 -2.38542e-015 -3.18055e-015 1.59028e-015 
0 0 0 0 0 -0 -10.1373 79.7024 -141.866 -2.81243 2.31236 -17.5613 0 8.22665 -2.84217e-014 -7.91859 39.7221 -1.63316 0 24.451 0 -13.4805 10.5142 -3.2519 1.42109e-014 24.3506 2.21369 9.60536 22.071 22.5336 3.55271e-015 14.0455 -2.0065 -23.9834 -44.5471 11.4804 4.0594 22.2558 -0.272799 7.38062 4.66871 -16.0556 12.0298 1.42109e-014 -2.84217e-014 -53.144 24.5356 -16.6613 31.2689 0 7.10543e-015 23.1852 -47.5796 -111.329 28.0275 7.10543e-015 -1.42109e-014 30.5017 -11.4782 25.8085 -3.96464 22.2558 -0.272799 -5.33177 7.9335 2.98029 -12.0298 0 0 51.8864 55.167 17.0054 -31.2689 0 0 -9.56469 -30.5013 111.448 -28.0275 0 -1.42109e-014 1.85821 -17.7909 -10.6432 10.0325 1.42109e-014 -2.84217e-014 26.0585 -38.0438 23.5289 -1.77636e-015 -38.4033 1.42109e-014 -12.141 51.0675 -0.702118 -1.77636e-015 -44.1642 0 -3.37724 -7.50432 14.7642 0 -6.52112 15.0487 -2.98177e-016 -3.97569e-016 -0 -10.0325 0 0 -9.99431 -27.0265 -3.74168 0 -38.4033 0 -6.78216 61.6538 11.1251 0 -44.1642 -1.42109e-014 11.8484 -5.66839 7.52365 0 -6.52112 15.0487 1.59028e-015 3.18055e-015 -0 
0 0 0 0 0 -0 -9.97142 79.7 -141.601 -2.81628 2.29958 -17.5177 0 8.22665 -2.84217e-014 -7.89147 39.8911 -1.61063 1.42109e-014 24.451 2.84217e-014 -13.5892 10.3991 -3.23638 0 24.3506 2.21369 9.78135 22.1536 22.4554 0 14.0455 -2.0065 -24.4121 -44.4629 11.2073 4.0594 22.2558 -0.272799 7.23046 4.76114 -16.0448 12.0298 0 -2.84217e-014 -52.9737 24.5435 -16.7019 31.2689 -2.84217e-014 0 22.9589 -47.3435 -111.436 28.0275 -7.10543e-015 0 30.5546 -11.3537 26.0465 -3.96464 22.2558 -0.272799 -5.30759 7.95903 3.02315 -12.0298 1.42109e-014 0 51.9478 55.1195 16.9079 -31.2689 0 0 -9.65348 -30.5354 111.451 -28.0275 -7.10543e-015 0 1.84785 -17.7014 -10.7327 10.0325 0 -2.84217e-014 25.848 -38.0113 23.3905 0 -38.4033 7.10543e-015 -12.2039 51.2321 -0.658687 0 -44.1642 0 -3.22936 -7.78478 14.7183 3.55271e-015 -6.52112 15.0487 -3.97569e-016 0 1.59028e-015 -10.0325 0 -2.84217e-014 -10.3152 -27.2688 -4.0322 1.42109e-014 -38.4033 0 -7.11952 62.1485 11.5957 0 -44.1642 0 11.8598 -4.95784 7.53853 -1.42109e-014 -6.52112 15.0487 -1.59028e-015 3.18055e-015 1.59028e-015 
0 0 0 0 0 -0 -9.8168 79.6977 -141.322 -2.83213 2.32773 -17.4898 -7.10543e-015 8.22665 0 -7.85176 39.9612 -1.58073 0 24.451 -2.84217e-014 -13.7056 10.3485 -3.19283 0 24.3506 2.21369 9.68849 22.1911 22.3724 -3.55271e-015 14.0455 -2.0065 -24.4233 -44.5311 11.0969 4.0594 22.2558 -0.272799 7.12345 4.77586 -16.0696 12.0298 1.42109e-014 -1.42109e-014 -52.8801 24.6488 -16.6144 31.2689 0 7.10543e-015 23.0927 -47.3204 -111.184 28.0275 -1.42109e-014 0 30.3365 -11.3768 25.8741 -3.96464 22.2558 -0.272799 -5.24827 7.94348 2.98305 -12.0298 7.10543e-015 0 51.8588 55.132 16.957 -31.2689 -1.42109e-014 1.42109e-014 -9.6321 -30.5307 111.493 -28.0275 -2.13163e-014 -7.10543e-015 1.87687 -17.7179 -10.6969 10.0325 0 2.84217e-014 25.729 -38.0138 23.3632 -1.77636e-015 -38.4033 7.10543e-015 -12.2669 51.4603 -0.576943 0 -44.1642 0 -3.22752 -8.11601 14.5989 0 -6.52112 15.0487 -9.93923e-017 -3.97569e-016 -0 -10.0325 0 0 -10.5864 -27.556 -4.23764 1.42109e-014 -38.4033 0 -7.44104 62.6624 11.9026 0 -44.1642 -1.42109e-014 11.9075 -4.25777 7.70339 1.42109e-014 -6.52112 15.0487 3.53113e-031 6.36111e-015 -3.18055e-015 
0 0 0 0 0 -0 -9.66056 79.6971 -141.047 -2.84785 2.30607 -17.4218 -7.10543e-015 8.22665 -2.84217e-014 -7.86864 40.1207 -1.50899 0 24.451 0 -13.7154 10.2885 -3.14605 -1.42109e-014 24.3506 2.21369 9.46243 22.1365 22.2445 0 14.0455 -2.0065 -24.1801 -44.6057 11.0563 4.0594 22.2558 -0.272799 6.95264 4.79541 -16.0716 12.0298 0 0 -52.7474 24.8064 -16.6291 31.2689 0 0 23.276 -47.3033 -110.908 28.0275 0 0 29.9336 -11.3341 25.8971 -3.96464 22.2558 -0.272799 -5.24427 7.87268 2.9197 -12.0298 1.42109e-014 0 51.9753 55.1558 16.8075 -31.2689 -1.42109e-014 0 -9.74375 -30.5066 111.47 -28.0275 7.10543e-015 0 1.82677 -17.5352 -10.8354 10.0325 -1.42109e-014 0 25.5257 -37.97 23.2371 0 -38.4033 0 -12.3141 51.6271 -0.506151 -3.55271e-015 -44.1642 1.42109e-014 -3.08149 -8.36235 14.4873 0 -6.52112 15.0487 9.93923e-016 3.97569e-016 -7.95139e-016 -10.0325 1.42109e-014 0 -10.8613 -27.8016 -4.64947 -1.42109e-014 -38.4033 1.42109e-014 -8.15092 63.1484 12.5262 0 -44.1642 0 11.9599 -3.49002 7.90703 0 -6.52112 15.0487 -3.18055e-015 6.36111e-015 1.59028e-015 
0 0 0 0 0 -0 -9.5009 79.7056 -140.783 -2.87795 2.31556 -17.3394 0 8.22665 -5.68434e-014 -7.78008 40.2759 -1.51173 0 24.451 2.84217e-014 -13.8341 10.1582 -3.13335 1.42109e-014 24.3506 2.21369 9.4841 22.1771 22.1872 -3.55271e-015 14.0455 -2.0065 -24.2856 -44.5812 10.9503 4.0594 22.2558 -0.272799 6.82588 4.88982 -16.0728 12.0298 -7.10543e-015 1.42109e-014 -52.5817 24.9504 -16.6689 31.2689 0 0 23.4428 -47.2769 -110.632 28.0275 1.42109e-014 0 29.8416 -11.2234 25.9455 -3.96464 22.2558 -0.272799 -5.18162 7.83019 2.98384 -12.0298 0 0 52.0473 55.2631 16.6734 -31.2689 -1.42109e-014 0 -9.94582 -30.805 111.373 -28.0275 7.10543e-015 7.10543e-015 2.07113 -17.6231 -10.7603 10.0325 1.42109e-014 -2.84217e-014 25.3396 -37.9542 23.1489 0 -38.4033 7.10543e-015 -12.299 51.7905 -0.536831 -1.77636e-015 -44.1642 0 -2.91811 -8.5929 14.4896 0 -6.52112 15.0487 6.4605e-016 7.95139e-016 2.38542e-015 -10.0325 1.42109e-014 -2.84217e-014 -11.1059 -28.0769 -5.06291 0 -38.4033 -2.84217e-014 -8.93605 63.634 13.3661 1.42109e-014 -44.1642 1.42109e-014 12.063 -2.78841 7.94058 1.42109e-014 -6.52112 15.0487 -3.53113e-031 6.36111e-015 3.18055e-015 
